<?xml version="1.0" standalone="no"?>
<!DOCTYPE svg PUBLIC "-//W3C//DTD SVG 20010904//EN"
 "http://www.w3.org/TR/2001/REC-SVG-20010904/DTD/svg10.dtd">
<svg version="1.0" xmlns="http://www.w3.org/2000/svg"
 width="512.000000pt" height="512.000000pt" viewBox="0 0 512.000000 512.000000"
 preserveAspectRatio="xMidYMid meet">

<g transform="translate(0.000000,512.000000) scale(0.100000,-0.100000)"
fill="#000000" stroke="none">
<path d="M3759 5104 c-99 -30 -192 -117 -225 -213 l-17 -48 -69 -11 c-316 -54
-573 -309 -634 -629 -9 -50 -14 -144 -14 -287 0 -199 -1 -214 -20 -231 -27
-24 -60 -117 -60 -168 0 -58 15 -104 50 -160 l30 -48 0 -169 c0 -201 13 -250
82 -317 79 -76 86 -78 333 -81 l220 -3 90 -44 c141 -70 223 -88 395 -88 172 0
254 18 395 88 l90 44 220 3 c251 3 265 7 342 91 61 66 73 117 73 313 l0 163
30 48 c36 56 50 102 50 160 0 50 -31 137 -59 167 -18 19 -20 40 -24 266 -5
279 -11 311 -82 455 -80 162 -196 280 -350 356 -76 37 -213 79 -259 79 -16 0
-25 11 -38 48 -36 100 -128 186 -232 217 -64 19 -254 19 -317 -1z m283 -146
c42 -12 118 -79 118 -103 0 -13 -33 -15 -240 -15 -167 0 -240 3 -240 11 0 25
43 69 92 93 44 22 65 26 141 26 49 0 107 -5 129 -12z m372 -284 c100 -26 211
-90 285 -164 77 -78 122 -149 159 -252 24 -67 26 -89 30 -266 l4 -193 -153 3
-154 3 -3 35 c-5 75 -14 102 -45 137 -43 49 -82 63 -177 63 -93 0 -120 -16
-120 -73 0 -52 29 -71 114 -77 l71 -5 3 -35 c5 -75 14 -102 45 -137 38 -43 81
-63 138 -63 l41 0 -4 -152 c-4 -121 -10 -167 -28 -223 -80 -249 -252 -420
-500 -496 -108 -34 -293 -34 -400 -1 -249 78 -420 249 -500 497 -18 56 -24
102 -28 223 l-4 152 33 0 c93 1 167 74 178 177 l6 58 291 5 c269 5 294 6 313
24 27 25 28 79 1 106 -19 19 -33 20 -319 20 -188 0 -310 -4 -328 -11 -65 -24
-113 -95 -113 -167 0 -21 -5 -43 -12 -50 -8 -8 -56 -12 -150 -12 l-138 0 0
163 c0 182 13 260 58 358 77 169 227 298 407 350 53 16 112 18 499 18 369 1
448 -1 500 -15z m-1372 -1159 l3 -135 -35 0 c-68 0 -140 69 -140 135 0 64 72
135 137 135 l32 0 3 -135z m1856 115 c40 -25 72 -75 72 -115 0 -66 -72 -135
-140 -135 l-35 0 3 135 3 135 32 0 c18 0 47 -9 65 -20z m-1795 -474 c23 -63
75 -151 143 -243 l16 -23 -108 0 c-122 0 -147 8 -181 59 -21 31 -23 45 -23
157 l0 124 63 0 62 0 28 -74z m1787 -48 c0 -191 -26 -218 -206 -218 l-106 0
16 23 c68 92 120 180 143 243 l28 74 63 0 62 0 0 -122z"/>
<path d="M3493 3578 c-32 -16 -46 -59 -41 -132 5 -78 25 -106 75 -106 57 0 73
26 73 124 0 79 -2 86 -26 105 -29 23 -48 25 -81 9z"/>
<path d="M4266 3569 c-24 -19 -26 -26 -26 -105 0 -98 16 -124 73 -124 50 0 70
28 75 106 5 75 -9 117 -44 133 -35 16 -48 14 -78 -10z"/>
<path d="M3620 3180 c-32 -32 -27 -83 13 -116 88 -74 240 -116 352 -97 74 13
174 57 223 97 39 33 44 84 12 116 -29 29 -71 25 -129 -14 -49 -33 -122 -56
-180 -56 -46 0 -125 28 -169 60 -49 35 -93 39 -122 10z"/>
<path d="M1520 5089 c-119 -11 -229 -35 -347 -74 -201 -67 -349 -159 -498
-310 -49 -51 -101 -98 -114 -105 -14 -7 -59 -17 -102 -21 -42 -5 -98 -18 -123
-29 -61 -26 -141 -102 -174 -165 l-27 -50 -3 -290 -3 -289 -40 -44 c-58 -62
-79 -113 -79 -197 0 -87 29 -154 90 -208 55 -51 99 -68 188 -76 l73 -6 33 -83
c43 -105 91 -178 180 -271 113 -117 231 -188 393 -238 79 -24 104 -26 238 -26
134 0 159 2 238 26 162 50 280 121 393 238 89 93 137 166 180 271 l33 83 73 6
c89 8 133 25 188 76 61 54 90 121 90 208 0 81 -20 133 -73 191 l-34 39 -6 140
c-3 89 -11 160 -22 195 l-17 55 33 24 c79 58 156 147 180 206 33 85 33 206 0
294 -31 82 -111 170 -189 208 -52 26 -66 28 -173 28 l-116 0 -12 45 c-17 61
-90 132 -154 148 -51 13 -168 14 -297 1z m284 -160 c15 -12 26 -30 26 -45 0
-40 31 -103 61 -125 38 -27 88 -34 135 -19 160 53 308 -54 309 -225 0 -58 -5
-78 -27 -116 -60 -102 -293 -246 -488 -302 -145 -42 -217 -47 -669 -47 -240 0
-454 -5 -475 -10 -80 -18 -125 -72 -141 -168 l-11 -67 -122 -3 -122 -3 0 240
c0 254 3 277 48 324 41 43 79 59 164 68 116 11 152 33 296 171 136 130 220
188 362 246 155 63 335 97 541 100 74 2 90 -1 113 -19z m321 -896 c4 -10 9
-67 12 -126 l6 -108 -129 3 -129 3 -3 76 -3 76 73 27 c40 15 89 36 108 46 44
24 56 24 65 3z m-395 -183 c0 -77 12 -110 57 -152 33 -31 72 -48 114 -48 l29
0 0 -138 c0 -229 -55 -380 -191 -526 -294 -315 -774 -315 -1068 0 -136 145
-191 297 -191 524 l0 137 45 5 c92 11 155 80 155 171 0 81 -26 77 478 78 246
0 470 4 497 9 28 4 56 8 63 9 8 1 12 -19 12 -69z m-1410 -258 c0 -33 3 -93 6
-135 l7 -77 -32 0 c-80 0 -141 58 -141 135 0 74 58 134 133 135 26 0 27 -1 27
-58z m1855 44 c44 -19 75 -69 75 -121 0 -77 -61 -135 -141 -135 l-32 0 7 77
c3 42 6 102 6 135 0 55 1 58 25 58 14 0 41 -6 60 -14z"/>
<path d="M765 3565 c-22 -22 -25 -32 -25 -105 0 -94 16 -120 74 -120 53 0 76
36 76 117 0 73 -18 118 -52 127 -38 10 -48 7 -73 -19z"/>
<path d="M1562 3580 c-30 -12 -42 -48 -42 -124 0 -80 24 -116 76 -116 58 0 74
26 74 120 0 73 -3 83 -25 105 -25 26 -45 30 -83 15z"/>
<path d="M901 3174 c-12 -15 -21 -37 -21 -49 0 -54 135 -137 254 -157 89 -15
188 0 270 41 110 55 147 108 109 159 -29 40 -73 40 -130 2 -52 -34 -129 -60
-178 -60 -48 0 -127 27 -176 60 -57 38 -100 39 -128 4z"/>
<path d="M3475 2446 c-57 -25 -107 -107 -129 -213 -6 -25 -23 -43 -72 -78
-148 -106 -263 -239 -346 -400 -87 -170 -117 -294 -125 -504 -6 -140 -7 -144
-39 -198 -58 -97 -57 -190 1 -288 l35 -57 0 -177 c0 -212 11 -261 73 -328 78
-85 87 -87 377 -94 l255 -5 85 -37 c213 -91 478 -86 695 12 l68 31 228 0 c272
0 306 8 382 89 67 71 77 116 77 332 l0 177 35 57 c58 98 59 191 1 288 -32 54
-33 58 -39 198 -8 210 -38 334 -125 504 -83 160 -198 294 -345 399 -60 43 -63
47 -84 118 -37 126 -86 178 -176 186 -61 5 -87 -6 -182 -73 l-60 -43 -40 21
c-55 28 -155 28 -210 0 l-40 -21 -60 43 c-33 23 -74 50 -92 59 -38 19 -106 20
-148 2z m144 -176 l55 -39 0 -97 1 -97 -58 -39 c-32 -22 -65 -38 -74 -36 -10
2 -25 25 -36 58 -34 99 -6 291 42 290 9 0 40 -18 70 -40z m706 3 c28 -58 32
-184 8 -253 -11 -33 -26 -56 -36 -58 -9 -2 -42 14 -74 36 l-58 39 1 96 0 96
55 40 c30 22 61 40 70 41 8 0 24 -17 34 -37z m-332 -73 c37 -41 37 -89 -2
-132 -24 -27 -36 -33 -71 -33 -82 0 -129 96 -79 159 43 54 105 57 152 6z
m-624 -240 c38 -103 94 -150 181 -150 46 0 77 14 164 73 56 38 61 39 90 28 62
-25 115 -33 159 -23 23 6 56 16 73 23 29 11 34 10 90 -28 87 -59 118 -73 164
-73 87 0 143 47 181 150 20 55 23 59 42 48 40 -21 165 -157 216 -234 94 -143
147 -305 158 -481 l6 -103 -214 0 c-307 0 -396 27 -530 160 -97 96 -134 182
-155 353 -14 118 -134 118 -148 0 -13 -104 -27 -161 -58 -223 -41 -84 -142
-187 -226 -229 -102 -52 -162 -61 -399 -61 l-213 0 0 54 c0 215 84 443 226
618 46 56 155 158 169 158 1 0 12 -27 24 -60z m586 -611 c40 -68 158 -178 236
-222 104 -57 187 -79 332 -84 l127 -6 0 -114 c0 -142 -20 -244 -69 -348 -118
-250 -346 -405 -621 -422 -128 -8 -236 14 -355 72 -164 80 -259 175 -340 340
-55 111 -75 208 -75 360 l0 115 95 0 c204 0 358 58 491 184 44 40 93 97 109
125 17 28 32 51 35 51 3 0 19 -23 35 -51z m-915 -439 l0 -130 -30 0 c-70 0
-140 65 -140 130 0 65 67 129 138 130 l32 0 0 -130z m1859 112 c38 -20 71 -73
71 -112 0 -65 -69 -130 -137 -130 l-33 0 0 130 0 130 33 0 c18 0 48 -8 66 -18z
m-1805 -447 c26 -76 85 -178 145 -252 l51 -63 -121 0 c-199 0 -219 22 -219
233 l0 137 63 0 63 0 18 -55z m1796 -82 c0 -212 -20 -233 -220 -233 l-122 0
40 48 c64 76 120 170 150 249 l27 73 63 0 62 0 0 -137z"/>
<path d="M3504 980 c-39 -15 -54 -49 -54 -122 0 -56 4 -71 23 -94 31 -35 82
-38 109 -5 25 32 26 169 1 199 -22 25 -51 33 -79 22z"/>
<path d="M4283 980 c-33 -13 -43 -42 -43 -123 0 -90 18 -120 70 -120 55 0 80
39 80 123 0 57 -4 73 -22 94 -27 29 -55 38 -85 26z"/>
<path d="M3620 580 c-33 -33 -27 -82 15 -119 152 -133 418 -133 570 0 27 24
35 39 35 65 0 65 -69 96 -121 55 -65 -50 -111 -66 -199 -66 -88 0 -134 16
-199 66 -31 25 -76 24 -101 -1z"/>
<path d="M630 2440 c-157 -28 -301 -124 -392 -264 -55 -85 -79 -171 -85 -298
-4 -84 -9 -108 -20 -108 -25 0 -108 -93 -121 -136 -6 -23 -12 -77 -12 -120 0
-96 21 -137 80 -162 l40 -17 0 -94 c0 -93 0 -94 -36 -133 -54 -60 -74 -111
-74 -193 0 -87 29 -154 90 -208 55 -51 99 -68 188 -76 l73 -6 33 -83 c43 -105
91 -178 180 -271 113 -117 231 -188 393 -238 79 -24 104 -26 238 -26 134 0
159 2 238 26 162 50 280 121 393 238 89 93 137 166 180 271 l33 83 73 6 c89 8
133 25 188 76 61 54 90 121 90 208 0 82 -20 133 -74 193 -36 39 -36 40 -36
133 l0 94 40 17 c59 25 80 66 80 162 0 43 -6 97 -12 120 -13 44 -96 136 -123
136 -12 0 -15 14 -15 78 -1 241 -120 441 -324 541 -119 58 -161 61 -738 60
-288 -1 -543 -5 -568 -9z m130 -145 c0 -3 -10 -22 -23 -43 -54 -85 -61 -117
-65 -294 l-4 -168 -184 0 -184 0 0 60 c0 250 181 442 423 449 20 1 37 -1 37
-4z m639 -11 c61 -18 132 -77 164 -139 19 -35 22 -60 25 -197 l4 -158 -262 0
-261 0 -24 -25 c-14 -13 -25 -36 -25 -50 0 -14 11 -37 25 -50 l24 -25 571 0
571 0 24 -25 c20 -19 25 -34 25 -75 l0 -50 -1055 0 -1055 0 0 50 c0 41 5 56
25 75 l24 25 284 0 c265 0 286 1 308 19 24 19 24 23 29 233 5 194 7 217 27
253 32 61 95 115 155 136 71 25 318 27 397 3z m361 6 c80 -15 154 -53 213
-109 89 -85 137 -199 137 -328 l0 -63 -184 0 -184 0 -4 168 c-5 176 -17 230
-69 303 -10 15 -19 30 -19 33 0 9 51 7 110 -4z m-1020 -995 c0 -35 -6 -52 -25
-70 -24 -25 -24 -25 -235 -25 l-210 0 0 70 0 70 235 0 235 0 0 -45z m780 -2
c0 -78 18 -124 69 -174 57 -58 94 -69 234 -69 l107 0 0 -138 c0 -167 -19 -253
-81 -373 -171 -328 -574 -475 -919 -335 -207 84 -375 276 -430 492 -15 59 -20
111 -20 216 l0 138 106 0 c135 0 177 12 234 70 50 49 70 100 70 174 l0 46 315
0 315 0 0 -47z m620 -23 l0 -70 -210 0 c-211 0 -211 0 -235 25 -19 18 -25 35
-25 70 l0 45 235 0 235 0 0 -70z m-1820 -278 c0 -33 3 -93 6 -135 l7 -77 -32
0 c-80 0 -141 58 -141 135 0 74 58 134 133 135 26 0 27 -1 27 -58z m1855 44
c44 -19 75 -69 75 -121 0 -77 -61 -135 -141 -135 l-32 0 7 77 c3 42 6 102 6
135 0 55 1 58 25 58 14 0 41 -6 60 -14z"/>
<path d="M783 980 c-33 -13 -43 -42 -43 -123 0 -83 14 -111 62 -123 22 -5 33
0 58 24 28 28 30 36 30 101 0 58 -4 74 -22 95 -27 29 -55 38 -85 26z"/>
<path d="M1574 980 c-38 -15 -54 -50 -54 -117 0 -74 13 -108 49 -123 33 -13
75 0 90 29 6 11 11 53 11 94 0 57 -4 80 -17 95 -22 25 -51 33 -79 22z"/>
<path d="M905 575 c-54 -53 -17 -111 112 -172 124 -60 265 -57 394 8 113 56
146 113 94 164 -32 33 -71 31 -120 -6 -102 -77 -258 -77 -360 0 -49 37 -88 39
-120 6z"/>
</g>
</svg>
