<?xml version="1.0" standalone="no"?>
<!DOCTYPE svg PUBLIC "-//W3C//DTD SVG 20010904//EN"
 "http://www.w3.org/TR/2001/REC-SVG-20010904/DTD/svg10.dtd">
<svg version="1.0" xmlns="http://www.w3.org/2000/svg"
 width="512.000000pt" height="512.000000pt" viewBox="0 0 512.000000 512.000000"
 preserveAspectRatio="xMidYMid meet">

<g transform="translate(0.000000,512.000000) scale(0.100000,-0.100000)"
fill="#000000" stroke="none">
<path d="M690 4785 c-311 -69 -533 -294 -596 -605 -30 -150 -7 -381 58 -574
83 -249 258 -497 458 -651 121 -93 454 -318 505 -341 150 -69 340 -69 490 0
53 24 346 222 485 327 41 31 110 93 153 137 l77 80 0 -303 0 -304 -87 6 c-141
8 -189 -8 -515 -169 l-286 -142 -434 130 -433 130 -3 -393 c-1 -216 -1 -570 0
-786 l3 -394 425 128 c234 71 432 128 440 129 8 0 71 -23 138 -50 211 -85 468
-149 672 -166 l78 -7 4 -126 c4 -112 7 -132 31 -177 38 -75 69 -107 139 -145
l63 -34 885 0 885 0 63 34 c70 38 101 70 139 145 24 46 27 65 31 183 l4 132
29 12 c17 6 47 31 68 55 67 77 79 166 33 258 l-29 56 29 56 c37 75 37 133 0
208 l-29 56 29 57 c26 51 29 66 25 121 l-5 62 60 0 c34 0 79 5 102 12 55 16
138 99 154 154 28 94 8 169 -63 239 -65 66 -99 75 -268 75 l-136 0 -3 763 -3
762 -34 63 c-38 70 -69 100 -145 140 l-51 27 -846 3 -847 3 -16 67 c-65 259
-280 476 -546 548 -90 25 -290 25 -380 0 -89 -24 -195 -76 -269 -132 l-61 -46
-63 47 c-74 55 -179 107 -262 130 -85 23 -264 28 -345 10z m275 -160 c113 -24
203 -74 305 -172 l90 -85 90 85 c167 159 348 215 555 172 220 -46 413 -236
457 -448 l12 -57 -48 -47 c-77 -73 -100 -134 -104 -275 l-4 -118 -209 0 -208
0 -19 63 c-10 34 -56 196 -103 359 -46 164 -86 298 -89 298 -3 0 -95 -234
-204 -520 -110 -286 -202 -520 -205 -520 -4 0 -39 89 -80 198 -41 108 -81 207
-90 219 -29 41 -90 63 -173 63 -75 0 -76 0 -88 30 -28 68 -129 130 -210 130
-124 0 -240 -116 -240 -240 0 -124 116 -240 240 -240 81 0 182 62 210 130 12
29 15 30 74 30 l61 0 144 -385 c80 -212 147 -385 150 -385 4 0 92 223 196 494
105 272 193 492 196 488 3 -4 23 -68 44 -142 63 -228 66 -230 379 -230 l226 0
0 -40 c0 -47 -36 -109 -129 -224 -77 -96 -166 -169 -408 -337 -252 -174 -293
-193 -423 -193 -128 0 -170 19 -395 174 -242 166 -332 237 -406 320 -194 216
-299 470 -316 761 -11 198 43 347 176 479 152 151 341 208 546 165z m1997
-734 c3 -118 12 -141 72 -185 26 -20 40 -21 326 -21 286 0 300 1 326 21 60 44
69 67 72 185 l4 110 268 -3 c253 -3 270 -4 296 -24 66 -49 69 -58 72 -265 l3
-189 -960 0 -961 0 0 174 c0 181 6 214 43 255 41 44 70 50 259 51 l176 0 4
-109z m638 29 l0 -80 -240 0 -240 0 0 80 0 80 240 0 240 0 0 -80z m-2905 -105
c50 -49 15 -135 -55 -135 -41 0 -80 39 -80 80 0 41 39 80 80 80 19 0 40 -9 55
-25z m3705 -1095 l0 -640 -56 0 c-87 0 -133 -18 -189 -75 -87 -87 -100 -201
-33 -297 19 -28 19 -28 0 -55 -55 -80 -55 -186 -1 -264 18 -26 18 -28 -4 -68
l-22 -41 -807 0 -808 0 0 184 0 185 48 -22 c67 -31 189 -30 254 1 58 29 121
92 150 151 34 71 32 188 -5 260 -21 40 -23 52 -11 47 8 -3 58 -6 109 -6 l93 0
4 -109 c3 -118 12 -141 72 -185 26 -20 41 -21 246 -21 205 0 220 1 246 21 60
44 69 67 72 184 l4 108 108 4 c117 3 140 12 184 72 20 26 21 41 21 246 0 205
-1 220 -21 246 -44 60 -67 69 -184 72 l-108 4 -4 108 c-3 117 -12 140 -72 184
-26 20 -41 21 -246 21 -205 0 -220 -1 -246 -21 -60 -44 -69 -67 -72 -184 l-4
-108 -108 -4 c-117 -3 -140 -12 -184 -72 -20 -26 -21 -41 -21 -241 l0 -214
-130 128 c-71 70 -145 136 -162 146 l-33 19 0 438 0 438 960 0 960 0 0 -640z
m-800 0 l0 -160 160 0 160 0 0 -160 0 -160 -160 0 -160 0 0 -160 0 -160 -160
0 -160 0 0 160 0 160 -160 0 -160 0 0 160 0 160 160 0 160 0 0 160 0 160 160
0 160 0 0 -160z m-1330 -330 c112 -21 153 -50 338 -233 184 -183 201 -209 188
-281 -9 -45 -63 -102 -106 -111 -72 -16 -96 -1 -240 140 -74 73 -151 141 -170
151 -27 14 -63 19 -157 22 l-123 4 0 -81 0 -81 101 0 100 0 60 -57 59 -56 0
-339 0 -338 -37 0 c-57 0 -265 36 -373 64 -113 30 -207 61 -312 106 l-78 32 0
389 0 389 261 130 c321 161 363 174 489 150z m-1323 -166 c120 -36 262 -79
316 -95 l97 -30 0 -379 0 -379 -98 -30 c-79 -24 -459 -138 -524 -157 -17 -5
-18 27 -18 565 0 314 2 571 5 571 3 0 103 -30 222 -66z m3908 -9 c16 -15 25
-36 25 -55 0 -19 -9 -40 -25 -55 -23 -24 -29 -25 -160 -25 l-135 0 0 80 0 80
135 0 c131 0 137 -1 160 -25z m-320 -320 c16 -15 25 -36 25 -55 0 -19 -9 -40
-25 -55 -23 -24 -31 -25 -135 -25 -104 0 -112 1 -135 25 -16 15 -25 36 -25 55
0 19 9 40 25 55 23 24 31 25 135 25 104 0 112 -1 135 -25z m0 -320 c16 -15 25
-36 25 -55 0 -19 -9 -40 -25 -55 -23 -24 -31 -25 -135 -25 -104 0 -112 1 -135
25 -16 15 -25 36 -25 55 0 19 9 40 25 55 23 24 31 25 135 25 104 0 112 -1 135
-25z m0 -320 c16 -15 25 -36 25 -55 0 -19 -9 -40 -25 -55 -23 -24 -31 -25
-135 -25 -104 0 -112 1 -135 25 -16 15 -25 36 -25 55 0 19 9 40 25 55 23 24
31 25 135 25 104 0 112 -1 135 -25z m-425 -165 c17 -42 90 -104 138 -118 22
-7 65 -12 97 -12 l57 0 -4 -109 c-3 -118 -12 -141 -72 -185 -27 -21 -34 -21
-886 -21 -852 0 -859 0 -886 21 -66 49 -69 58 -72 265 l-3 189 809 0 810 0 12
-30z"/>
<path d="M3120 880 l0 -80 320 0 320 0 0 80 0 80 -320 0 -320 0 0 -80z"/>
</g>
</svg>
