<svg id="Layer_2" enable-background="new 0 0 32 32" height="512" viewBox="0 0 32 32" width="512" xmlns="http://www.w3.org/2000/svg"><g><path d="m16 1c-5.69067 0-10.32056 4.62982-10.32056 10.32098v7.1579c-1.74884.35724-3.0686 1.9071-3.0686 3.75946 0 2.11597 1.72144 3.83691 3.83746 3.83691h4.02094c.3222 2.76813 2.67767 4.92475 5.53076 4.92475s5.20856-2.15662 5.53076-4.92474h4.02094c2.11603 0 3.83746-1.72095 3.83746-3.83691 0-1.85236-1.31976-3.40222-3.0686-3.75946v-7.1579c0-5.69117-4.62989-10.32099-10.32056-10.32099zm0 27.09674c-1.24792 0-2.29889-.86188-2.58899-2.02148h5.17798c-.2901 1.1596-1.34107 2.02148-2.58899 2.02148zm10.4859-5.8584c0 .51501-.41913.93372-.9342.93372h-19.1034c-.51508 0-.9342-.4187-.9342-.93372 0-.51508.41913-.93372.9342-.93372h.6828c.80188 0 1.4516-.65021 1.4516-1.45166v-8.53198c0-4.09021 3.32758-7.41779 7.4173-7.41779s7.4173 3.32758 7.4173 7.41779v8.53198c0 .80145.64972 1.45166 1.4516 1.45166h.6828c.51507.00001.9342.41865.9342.93372z"/></g></svg>