<svg fill="none" height="512" viewBox="0 0 24 24" width="512" xmlns="http://www.w3.org/2000/svg"><g fill="rgb(0,0,0)"><path d="m15 5.5c0-.27614.2239-.5.5-.5h2c.2761 0 .5.22386.5.5s-.2239.5-.5.5h-2c-.2761 0-.5-.22386-.5-.5z"/><path d="m15 7.5c0-.27614.2239-.5.5-.5h3c.2761 0 .5.22386.5.5s-.2239.5-.5.5h-3c-.2761 0-.5-.22386-.5-.5z"/><path d="m15 9.5c0-.27614.2239-.5.5-.5h2c.2761 0 .5.22386.5.5s-.2239.5-.5.5h-2c-.2761 0-.5-.22386-.5-.5z"/><path d="m15 11.5c0-.2761.2239-.5.5-.5h3c.2761 0 .5.2239.5.5s-.2239.5-.5.5h-3c-.2761 0-.5-.2239-.5-.5z"/><path d="m15 13.5c0-.2761.2239-.5.5-.5h2c.2761 0 .5.2239.5.5s-.2239.5-.5.5h-2c-.2761 0-.5-.2239-.5-.5z"/><g clip-rule="evenodd" fill-rule="evenodd"><path d="m11 15.1119-.4993.2888c-.89929.5203-1.5007 1.4901-1.5007 2.5993 0 1.6569 1.3431 3 3 3s3-1.3431 3-3c0-1.1092-.6014-2.079-1.5007-2.5993l-.4993-.2888v-11.1119c0-.55228-.4477-1-1-1s-1 .44772-1 1zm-1-11.1119c0-1.10457.8954-2 2-2s2 .89543 2 2v10.5351c1.1956.6916 2 1.9843 2 3.4649 0 2.2091-1.7909 4-4 4-2.20914 0-4-1.7909-4-4 0-1.4806.8044-2.7733 2-3.4649z"/><path d="m12 19c.5523 0 1-.4477 1-1s-.4477-1-1-1-1 .4477-1 1 .4477 1 1 1zm0 1c1.1046 0 2-.8954 2-2s-.8954-2-2-2-2 .8954-2 2 .8954 2 2 2z"/><path d="m12 3.5c.2761 0 .5.22386.5.5v12c0 .2761-.2239.5-.5.5s-.5-.2239-.5-.5v-12c0-.27614.2239-.5.5-.5z"/></g></g></svg>